<svg width="115" height="35" viewBox="0 0 115 35" fill="none" xmlns="http://www.w3.org/2000/svg">
<!--like-->
<path fill-rule="evenodd" clip-rule="evenodd" d="M7.36656 3.2063C3.47849 3.2063 0.392496 6.77288 1.10209 11.892C1.71793 16.3349 12.3223 25.2063 13.5 25.2063C14.6777 25.2063 25.2821 16.3349 25.8979 11.892C26.6075 6.77277 23.5215 3.2063 19.6334 3.2063C17.0414 3.2063 15.0222 4.2961 13.5 6.47569C11.9778 4.2961 9.9586 3.2063 7.36656 3.2063Z" stroke="#A8A8A8" stroke-width="2"/>
<!--buy-->
<path d="M75 1.93616H78.8842C79.3314 1.93616 79.7242 2.23303 79.8463 2.66321L84.0737 17.5635C84.1958 17.9937 84.5886 18.2906 85.0358 18.2906H99.7568C100.207 18.2906 100.602 17.9892 100.721 17.5545L103.654 6.83436C103.828 6.19804 103.349 5.57048 102.69 5.57048H80.6711" stroke="#A8A8A8" stroke-width="2"/>
<path d="M90 23.9125C90 25.3568 88.8602 26.49 87.5 26.49C86.1398 26.49 85 25.3568 85 23.9125C85 22.4682 86.1398 21.335 87.5 21.335C88.8602 21.335 90 22.4682 90 23.9125Z" stroke="#A8A8A8" stroke-width="2"/>
<path d="M99 23.9125C99 25.3568 97.8602 26.49 96.5 26.49C95.1398 26.49 94 25.3568 94 23.9125C94 22.4682 95.1398 21.335 96.5 21.335C97.8602 21.335 99 22.4682 99 23.9125Z" stroke="#A8A8A8" stroke-width="2"/>
<!--account-->
<path d="M53 15.9925C55.75 15.9925 58.5 13.7854 58.5 9.62105C58.5 5.45673 56.6667 2.95813 53 2.95813C49.3333 2.95813 47.5 6.33123 47.5 9.62105C47.5 13.7854 50.25 15.9925 53 15.9925ZM53 15.9925C58.5 15.9925 64 20.3858 64 25.4455H42C42 20.948 47.5 15.9925 53 15.9925Z" stroke="#A8A8A8" stroke-width="2" stroke-linecap="round" stroke-linejoin="round"/>\
</svg>
