<svg width="7" height="9" viewBox="0 0 7 9" fill="none" xmlns="http://www.w3.org/2000/svg">
<path d="M2.85546 6.17408L4.26727 5.75961C4.13774 5.64304 4.03412 5.42285 4.03412 5.21561C4.03412 4.12761 6.19717 3.98513 6.19717 2.09408C6.19717 0.889512 5.17393 0.0476074 3.50308 0.0476074C2.38917 0.0476074 1.35298 0.500941 0.666504 1.30399L1.71565 2.48266C2.11717 2.00342 2.66117 1.67961 3.30879 1.67961C4.02117 1.67961 4.31908 2.01637 4.31908 2.41789C4.31908 3.31161 2.42803 3.49294 2.42803 5.03427C2.42803 5.48761 2.58346 5.87618 2.85546 6.17408ZM3.47717 8.95885C4.04708 8.95885 4.52631 8.47961 4.52631 7.9097C4.52631 7.3398 4.04708 6.86056 3.47717 6.86056C2.90727 6.86056 2.42803 7.3398 2.42803 7.9097C2.42803 8.47961 2.90727 8.95885 3.47717 8.95885Z" fill="white"/>
</svg>
